# xmcd
#
# Track frame offsets: 
#        150
#        13592
#        30810
#        45091
#        61515
#        79398
#        93031
#        110925
#        126151
#        143589
#        159389
#        174607
#
# Disc length: 2554 seconds
#
# Revision: 0
# Processed by: cddbd v1.5.2PL0 Copyright (c) Steve Scherf et al.
# Submitted via: ExactAudioCopy v1.0b3
#
DISCID=8509f80c
DTITLE=Каста - Влади - Несусветное
DYEAR=2015
DGENRE=Rap
TTITLE0=Влади - Люблю это место
TTITLE1=Влади - Перемены
TTITLE2=Влади - Чемпион мира
TTITLE3=Влади - Вот бы повезло (бэк-вокал: Маринэ Манукян)
TTITLE4=Влади - Потому что
TTITLE5=Влади - Скоро буду 
TTITLE6=Влади - Карго-культ
TTITLE7=Влади - Это был прогон
TTITLE8=Влади - Сбежать, умереть и воскреснуть
TTITLE9=Влади - По-хорошему
TTITLE10=Влади - Зеркало [альбомная версия]
TTITLE11=Влади - Механизм иллюзии
EXTD=
EXTT0=
EXTT1=
EXTT2=
EXTT3=
EXTT4=
EXTT5=
EXTT6=
EXTT7=
EXTT8=
EXTT9=
EXTT10=
EXTT11=
PLAYORDER=
